# Blender v3.0.1 OBJ File: ''
# www.blender.org
mtllib rock.mtl
o untitled
v -0.088334 -0.883665 -0.023449
v 0.461371 -0.922753 0.335202
v -0.112411 -0.919529 0.489856
v 0.867801 -0.536333 0.630486
v 1.006498 -0.622054 0.000000
v 0.844604 0.000000 0.274425
v -0.323579 -0.523583 0.995897
v 0.000000 0.000000 1.217539
v -1.054717 -0.527358 0.000000
v -0.784798 -0.599539 0.570188
v -0.779507 0.472587 0.565187
v -0.325363 -0.526468 -1.001386
v -0.595874 -0.455213 -0.432925
v -0.649626 0.000000 -0.894136
v 0.590259 -0.364809 -0.428844
v 0.319047 -0.638094 -0.981909
v 0.511234 -0.009079 -0.795433
v 0.637145 0.000000 0.876958
v -0.696924 0.000000 0.959240
v -0.827519 0.000000 -0.268874
v 1.068715 0.000000 -0.347240
v 0.139092 0.656210 0.478218
v -0.450934 0.901879 0.327619
v 0.300187 0.485730 -0.923898
v -0.293989 0.587978 -0.904790
v 0.411330 0.616798 -0.588693
v 1.080333 0.540166 0.000000
v 0.250834 0.840374 0.013592
v -0.514797 1.029610 -0.374018
v -0.798597 0.496758 -0.603584
v 0.564677 0.431380 0.410259
v 0.498829 -0.997672 -0.362416
vn -0.0247 -0.9972 -0.0708
vn 0.5757 -0.7837 0.2332
vn 0.9673 0.1679 0.1900
vn 0.4864 -0.5780 0.6552
vn -0.9035 0.0065 0.4285
vn -0.8302 -0.4421 -0.3396
vn 0.9154 -0.1718 -0.3640
vn 0.9158 0.2489 0.3153
vn -0.3419 -0.1792 0.9225
vn -0.9331 0.3332 -0.1351
vn 0.0840 0.2483 -0.9650
vn 0.5291 -0.5492 -0.6469
vn -0.0164 0.4937 0.8695
vn 0.1428 0.9048 -0.4011
vn 0.3257 0.9114 -0.2515
vn 0.3472 0.9056 -0.2437
vn 0.2219 0.7929 -0.5675
vn -0.4985 0.5531 -0.6676
vn 0.1582 0.9739 0.1629
vn -0.8981 0.4109 0.1566
vn -0.7869 0.6165 0.0256
vn 0.2598 0.8747 0.4092
vn 0.4754 0.7727 0.4206
vn 0.2885 0.7714 0.5672
vn 0.6283 0.4111 -0.6605
vn 0.5866 0.3369 -0.7365
vn 0.8770 0.2710 -0.3968
vn -0.0793 -0.2821 -0.9561
vn 0.0840 -0.0688 -0.9941
vn -0.5282 0.3051 -0.7924
vn -0.9974 0.0700 0.0177
vn -0.0537 0.6339 0.7715
vn -0.2303 0.7489 0.6214
vn 0.4540 0.6883 0.5658
vn 0.8419 0.4551 0.2899
vn 0.5983 0.1398 0.7890
vn 0.0745 0.2624 -0.9621
vn -0.9540 -0.1273 -0.2714
vn -0.8958 -0.3640 -0.2549
vn -0.6772 -0.0811 -0.7313
vn -0.9773 0.0058 0.2118
vn -0.5949 -0.3744 0.7113
vn 0.3515 0.6664 0.6576
vn 0.3761 -0.6028 0.7037
vn 0.0283 -0.4073 0.9128
vn 0.9151 -0.2318 0.3299
vn 0.9365 0.0948 0.3376
vn 0.4805 -0.4636 -0.7445
vn 0.9154 -0.1705 -0.3646
vn -0.3822 -0.8431 -0.3784
vn -0.1535 -0.9396 -0.3060
vn -0.5565 -0.8147 -0.1627
vn -0.3152 -0.8237 -0.4713
vn -0.3446 -0.9377 0.0444
vn -0.4363 -0.8960 -0.0831
vn -0.3244 -0.8059 0.4952
vn 0.6534 -0.1718 -0.7373
vn 0.5345 -0.8368 0.1186
vn -0.1345 -0.9860 0.0987
vn 0.1797 -0.7096 0.6813
usemtl None
s off
f 1//1 2//1 3//1
f 4//2 2//2 5//2
f 4//3 5//3 6//3
f 7//4 3//4 8//4
f 9//5 10//5 11//5
f 12//6 13//6 14//6
f 15//7 16//7 17//7
f 4//8 6//8 18//8
f 7//9 8//9 19//9
f 9//10 11//10 20//10
f 12//11 14//11 17//11
f 15//12 17//12 21//12
f 11//13 22//13 23//13
f 24//14 25//14 26//14
f 27//15 26//15 28//15
f 26//16 29//16 28//16
f 26//17 25//17 29//17
f 25//18 30//18 29//18
f 29//19 23//19 28//19
f 29//20 30//20 23//20
f 30//21 11//21 23//21
f 23//22 22//22 28//22
f 22//23 31//23 28//23
f 31//24 27//24 28//24
f 21//25 26//25 27//25
f 21//26 17//26 26//26
f 17//27 24//27 26//27
f 17//28 25//28 24//28
f 17//29 14//29 25//29
f 14//30 30//30 25//30
f 20//31 11//31 30//31
f 19//32 22//32 11//32
f 19//33 8//33 22//33
f 18//34 31//34 22//34
f 18//35 6//35 31//35
f 6//36 27//36 31//36
f 16//37 12//37 17//37
f 14//38 20//38 30//38
f 14//39 13//39 20//39
f 13//40 9//40 20//40
f 11//41 10//41 19//41
f 10//42 7//42 19//42
f 8//43 18//43 22//43
f 8//44 3//44 18//44
f 3//45 4//45 18//45
f 6//46 21//46 27//46
f 6//47 5//47 21//47
f 5//48 15//48 21//48
f 32//49 16//49 15//49
f 32//50 1//50 16//50
f 1//51 12//51 16//51
f 1//52 13//52 12//52
f 1//53 9//53 13//53
f 1//54 10//54 9//54
f 1//55 3//55 10//55
f 3//56 7//56 10//56
f 5//57 32//57 15//57
f 5//58 2//58 32//58
f 2//59 1//59 32//59
f 2//60 4//60 3//60
